<svg width="2400" height="614" viewBox="0 0 2400 614" fill="none" xmlns="http://www.w3.org/2000/svg">
<g clip-path="url(#clip0_3_66)">
<g clip-path="url(#clip1_3_66)">
<rect x="383.333" y="480" width="61.6915" height="61.6915" transform="rotate(-180 383.333 480)" fill="white"/>
<rect x="284.826" y="481.6" width="52.7363" height="52.7363" transform="rotate(-180 284.826 481.6)" fill="white"/>
<rect x="195.27" y="470.475" width="42.7861" height="42.7861" transform="rotate(-180 195.27 470.475)" fill="white"/>
<rect x="115.667" y="450.575" width="22.8856" height="22.8856" transform="rotate(-180 115.667 450.575)" fill="white"/>
<rect x="115.667" y="380.497" width="32.8358" height="32.8358" transform="rotate(-180 115.667 380.497)" fill="white"/>
<rect x="115.667" y="295.921" width="32.8358" height="32.8358" transform="rotate(-180 115.667 295.921)" fill="white"/>
<rect x="46.0205" y="290.945" width="22.8856" height="22.8856" transform="rotate(-180 46.0205 290.945)" fill="white"/>
<rect x="46.0205" y="375.522" width="22.8856" height="22.8856" transform="rotate(-180 46.0205 375.522)" fill="white"/>
<rect x="46.0205" y="206.368" width="22.8856" height="22.8856" transform="rotate(-180 46.0205 206.368)" fill="white"/>
<rect x="115.667" y="211.345" width="32.8358" height="32.8358" transform="rotate(-180 115.667 211.345)" fill="white"/>
<rect x="115.667" y="132.38" width="22.8856" height="22.8856" transform="rotate(-180 115.667 132.38)" fill="white"/>
<rect x="195.27" y="385.472" width="42.7861" height="42.7861" transform="rotate(-180 195.27 385.472)" fill="white"/>
<rect x="195.27" y="300.895" width="42.7861" height="42.7861" transform="rotate(-180 195.27 300.895)" fill="white"/>
<rect x="195.27" y="216.319" width="42.7861" height="42.7861" transform="rotate(-180 195.27 216.319)" fill="white"/>
<rect x="195.27" y="132.38" width="42.7861" height="42.7861" transform="rotate(-180 195.27 132.38)" fill="white"/>
<rect x="284.826" y="390.448" width="52.7363" height="52.7363" transform="rotate(-180 284.826 390.448)" fill="white"/>
<rect x="284.826" y="305.871" width="52.7363" height="52.7363" transform="rotate(-180 284.826 305.871)" fill="white"/>
<rect x="284.826" y="221.293" width="52.7363" height="52.7363" transform="rotate(-180 284.826 221.293)" fill="white"/>
<rect x="284.826" y="132.8" width="52.7363" height="52.7363" transform="rotate(-180 284.826 132.8)" fill="white"/>
<rect x="383.333" y="395.423" width="61.6915" height="61.6915" transform="rotate(-180 383.333 395.423)" fill="white"/>
<rect x="383.333" y="310.846" width="61.6915" height="61.6915" transform="rotate(-180 383.333 310.846)" fill="white"/>
<rect x="383.333" y="226.269" width="61.6915" height="61.6915" transform="rotate(-180 383.333 226.269)" fill="white"/>
<rect x="383.333" y="141.905" width="61.6915" height="61.6915" transform="rotate(-180 383.333 141.905)" fill="white"/>
</g>
</g>
<path d="M695.65 457.7C691.15 457.7 687.7 456.5 685.3 454.1C682.9 451.4 681.7 447.8 681.7 443.3V162.5H574.15C569.95 162.5 566.65 161.3 564.25 158.9C561.85 156.5 560.65 153.5 560.65 149.9C560.65 146 561.85 143 564.25 140.9C566.65 138.8 569.95 137.75 574.15 137.75H817.6C821.8 137.75 824.95 138.8 827.05 140.9C829.45 143 830.65 146 830.65 149.9C830.65 153.8 829.45 156.95 827.05 159.35C824.95 161.45 821.8 162.5 817.6 162.5H709.6V443.3C709.6 447.8 708.4 451.4 706 454.1C703.9 456.5 700.45 457.7 695.65 457.7ZM884.85 456.8C880.35 456.8 876.9 455.45 874.5 452.75C872.1 450.05 870.9 446.45 870.9 441.95V249.35C870.9 244.55 872.1 240.95 874.5 238.55C876.9 236.15 880.35 234.95 884.85 234.95C889.05 234.95 892.35 236.15 894.75 238.55C897.15 240.95 898.35 244.55 898.35 249.35V441.95C898.35 446.45 897.15 450.05 894.75 452.75C892.65 455.45 889.35 456.8 884.85 456.8ZM884.85 180.5C878.55 180.5 873.6 178.85 870 175.55C866.7 172.25 865.05 167.6 865.05 161.6C865.05 155.6 866.7 151.1 870 148.1C873.6 144.8 878.55 143.15 884.85 143.15C891.15 143.15 895.95 144.8 899.25 148.1C902.85 151.1 904.65 155.6 904.65 161.6C904.65 167.6 902.85 172.25 899.25 175.55C895.95 178.85 891.15 180.5 884.85 180.5ZM985.506 457.7C981.006 457.7 977.556 456.5 975.156 454.1C972.756 451.7 971.556 448.25 971.556 443.75V248C971.556 243.2 972.756 239.6 975.156 237.2C977.556 234.8 981.006 233.6 985.506 233.6C989.706 233.6 992.856 234.8 994.956 237.2C997.356 239.6 998.556 243.2 998.556 248V290.75L993.606 287.6C999.006 269.9 1008.16 256.4 1021.06 247.1C1033.96 237.5 1049.41 232.7 1067.41 232.7C1086.61 232.7 1101.91 237.35 1113.31 246.65C1125.01 255.95 1132.66 269.9 1136.26 288.5H1129.51C1134.61 271.7 1144.06 258.2 1157.86 248C1171.96 237.8 1188.46 232.7 1207.36 232.7C1223.56 232.7 1236.91 235.85 1247.41 242.15C1258.21 248.45 1266.31 257.9 1271.71 270.5C1277.11 282.8 1279.81 298.4 1279.81 317.3V443.75C1279.81 448.25 1278.61 451.7 1276.21 454.1C1273.81 456.5 1270.36 457.7 1265.86 457.7C1261.66 457.7 1258.36 456.5 1255.96 454.1C1253.56 451.7 1252.36 448.25 1252.36 443.75V319.55C1252.36 297.65 1248.46 281.75 1240.66 271.85C1233.16 261.65 1220.41 256.55 1202.41 256.55C1183.21 256.55 1167.91 263.3 1156.51 276.8C1145.11 290 1139.41 308 1139.41 330.8V443.75C1139.41 448.25 1138.21 451.7 1135.81 454.1C1133.41 456.5 1130.11 457.7 1125.91 457.7C1121.41 457.7 1117.96 456.5 1115.56 454.1C1113.16 451.7 1111.96 448.25 1111.96 443.75V319.55C1111.96 297.65 1108.06 281.75 1100.26 271.85C1092.76 261.65 1080.16 256.55 1062.46 256.55C1042.96 256.55 1027.51 263.3 1016.11 276.8C1004.71 290 999.006 308 999.006 330.8V443.75C999.006 453.05 994.506 457.7 985.506 457.7ZM1446.61 458.6C1424.11 458.6 1404.76 454.1 1388.56 445.1C1372.36 436.1 1359.91 423.2 1351.21 406.4C1342.51 389.6 1338.16 369.65 1338.16 346.55C1338.16 323.75 1342.51 303.95 1351.21 287.15C1359.91 270.05 1371.91 256.7 1387.21 247.1C1402.81 237.5 1420.66 232.7 1440.76 232.7C1455.46 232.7 1468.36 235.25 1479.46 240.35C1490.86 245.15 1500.46 252.2 1508.26 261.5C1516.36 270.5 1522.51 281.6 1526.71 294.8C1530.91 307.7 1533.01 322.4 1533.01 338.9C1533.01 343.1 1531.81 346.25 1529.41 348.35C1527.31 350.45 1524.31 351.5 1520.41 351.5H1357.96V331.25H1515.91L1508.71 337.1C1508.71 319.7 1506.16 305 1501.06 293C1495.96 280.7 1488.31 271.25 1478.11 264.65C1468.21 258.05 1455.91 254.75 1441.21 254.75C1424.71 254.75 1410.76 258.65 1399.36 266.45C1387.96 273.95 1379.41 284.45 1373.71 297.95C1368.01 311.15 1365.16 326.45 1365.16 343.85V346.1C1365.16 374.9 1372.21 397.1 1386.31 412.7C1400.41 428 1420.21 435.65 1445.71 435.65C1456.81 435.65 1467.46 434.15 1477.66 431.15C1488.16 428.15 1498.36 423.05 1508.26 415.85C1511.26 413.75 1514.11 412.7 1516.81 412.7C1519.81 412.7 1522.21 413.45 1524.01 414.95C1526.11 416.45 1527.46 418.4 1528.06 420.8C1528.96 422.9 1528.81 425.3 1527.61 428C1526.71 430.4 1524.76 432.65 1521.76 434.75C1512.16 442.55 1500.61 448.55 1487.11 452.75C1473.61 456.65 1460.11 458.6 1446.61 458.6ZM1660.07 458.6C1646.57 458.6 1633.07 456.8 1619.57 453.2C1606.37 449.6 1593.77 443.45 1581.77 434.75C1579.37 433.25 1577.72 431.45 1576.82 429.35C1576.22 426.95 1576.07 424.55 1576.37 422.15C1576.97 419.75 1578.02 417.8 1579.52 416.3C1581.32 414.5 1583.42 413.45 1585.82 413.15C1588.22 412.85 1590.77 413.6 1593.47 415.4C1605.17 423.2 1616.57 428.6 1627.67 431.6C1638.77 434.6 1649.87 436.1 1660.97 436.1C1679.27 436.1 1693.22 432.65 1702.82 425.75C1712.42 418.85 1717.22 409.55 1717.22 397.85C1717.22 388.25 1714.07 380.9 1707.77 375.8C1701.77 370.4 1691.87 366.05 1678.07 362.75L1638.92 353.75C1620.02 349.55 1606.07 342.8 1597.07 333.5C1588.07 323.9 1583.57 311.6 1583.57 296.6C1583.57 283.7 1586.87 272.45 1593.47 262.85C1600.37 253.25 1609.97 245.9 1622.27 240.8C1634.87 235.4 1649.27 232.7 1665.47 232.7C1678.67 232.7 1691.27 234.65 1703.27 238.55C1715.27 242.45 1725.77 248.45 1734.77 256.55C1737.17 258.35 1738.67 260.45 1739.27 262.85C1740.17 265.25 1740.17 267.65 1739.27 270.05C1738.67 272.15 1737.47 273.95 1735.67 275.45C1733.87 276.95 1731.77 277.7 1729.37 277.7C1726.97 277.7 1724.42 276.8 1721.72 275C1713.02 268.4 1703.87 263.6 1694.27 260.6C1684.67 257.3 1674.92 255.65 1665.02 255.65C1647.62 255.65 1634.12 259.25 1624.52 266.45C1615.22 273.65 1610.57 283.4 1610.57 295.7C1610.57 305 1613.42 312.5 1619.12 318.2C1625.12 323.9 1634.42 328.25 1647.02 331.25L1686.17 340.25C1705.67 344.75 1720.22 351.5 1729.82 360.5C1739.42 369.2 1744.22 381.05 1744.22 396.05C1744.22 415.25 1736.57 430.55 1721.27 441.95C1706.27 453.05 1685.87 458.6 1660.07 458.6ZM1824.56 455C1819.76 455 1816.01 453.65 1813.31 450.95C1810.61 448.25 1809.26 444.35 1809.26 439.25V153.5C1809.26 148.4 1810.61 144.5 1813.31 141.8C1816.01 139.1 1819.76 137.75 1824.56 137.75H1911.41C1961.81 137.75 2000.66 151.25 2027.96 178.25C2055.56 205.25 2069.36 244.55 2069.36 296.15C2069.36 321.95 2065.76 344.75 2058.56 364.55C2051.66 384.35 2041.46 401 2027.96 414.5C2014.46 427.7 1997.96 437.75 1978.46 444.65C1958.96 451.55 1936.61 455 1911.41 455H1824.56ZM1836.71 430.7H1909.16C1931.06 430.7 1950.11 427.85 1966.31 422.15C1982.81 416.45 1996.46 408.05 2007.26 396.95C2018.06 385.85 2026.16 371.9 2031.56 355.1C2036.96 338 2039.66 318.35 2039.66 296.15C2039.66 251.45 2028.71 218 2006.81 195.8C1985.21 173.3 1952.66 162.05 1909.16 162.05H1836.71V430.7ZM2154.59 455C2149.79 455 2146.04 453.65 2143.34 450.95C2140.64 448.25 2139.29 444.35 2139.29 439.25V153.5C2139.29 148.4 2140.64 144.5 2143.34 141.8C2146.04 139.1 2149.79 137.75 2154.59 137.75H2260.34C2282.24 137.75 2300.69 141.05 2315.69 147.65C2330.69 153.95 2342.24 163.25 2350.34 175.55C2358.44 187.85 2362.49 203 2362.49 221C2362.49 240.8 2356.49 257.3 2344.49 270.5C2332.79 283.7 2316.89 292.4 2296.79 296.6V290.3C2319.29 292.7 2336.99 300.8 2349.89 314.6C2363.09 328.1 2369.69 346.1 2369.69 368.6C2369.69 396.8 2360.69 418.25 2342.69 432.95C2324.69 447.65 2299.19 455 2266.19 455H2154.59ZM2166.29 431.6H2263.94C2290.04 431.6 2309.54 426.5 2322.44 416.3C2335.34 405.8 2341.79 390.05 2341.79 369.05C2341.79 347.45 2335.34 331.55 2322.44 321.35C2309.54 311.15 2290.04 306.05 2263.94 306.05H2166.29V431.6ZM2166.29 282.65H2257.19C2282.39 282.65 2301.59 277.55 2314.79 267.35C2327.99 256.85 2334.59 241.7 2334.59 221.9C2334.59 202.1 2327.99 187.1 2314.79 176.9C2301.59 166.4 2282.39 161.15 2257.19 161.15H2166.29V282.65Z" fill="white"/>
<defs>
<clipPath id="clip0_3_66">
<rect width="400" height="400" fill="white" transform="matrix(-1 0 0 -1 400 480)"/>
</clipPath>
<clipPath id="clip1_3_66">
<rect width="367.164" height="400" fill="white" transform="matrix(-1 0 0 -1 383.333 480)"/>
</clipPath>
</defs>
</svg>
